<svg width="250" height="60" viewBox="0 0 250 60" fill="none" xmlns="http://www.w3.org/2000/svg">
<path d="M20 2.5H230C239.665 2.5 247.5 10.335 247.5 20V40C247.5 49.665 239.665 57.5 230 57.5H20C10.335 57.5 2.5 49.665 2.5 40V20C2.5 10.335 10.335 2.5 20 2.5Z" fill="#010729" stroke="white" stroke-width="5"/>
<path d="M82.3867 43H77.8164V36.8125H61.75V43H57.1797V30.3965C57.1797 28.5566 57.4961 26.8633 58.1289 25.3164C58.7617 23.7695 59.6406 22.4395 60.7656 21.3262C61.8906 20.2129 63.2207 19.3457 64.7559 18.7246C66.291 18.1035 67.9668 17.793 69.7832 17.793H80.084C80.4004 17.793 80.6992 17.8516 80.9805 17.9688C81.2617 18.0859 81.5078 18.25 81.7188 18.4609C81.9297 18.6719 82.0938 18.918 82.2109 19.1992C82.3281 19.4805 82.3867 19.7793 82.3867 20.0957V43ZM61.75 32.2422H77.8164V22.3633H69.7832C69.6426 22.3633 69.3438 22.3867 68.8867 22.4336C68.4414 22.4688 67.9199 22.5684 67.3223 22.7324C66.7363 22.8965 66.1152 23.1484 65.459 23.4883C64.8027 23.8281 64.1992 24.2969 63.6484 24.8945C63.0977 25.4922 62.6406 26.2422 62.2773 27.1445C61.9258 28.0352 61.75 29.1191 61.75 30.3965V32.2422ZM105.502 43H93.1094C92.4766 43 91.7852 42.8887 91.0352 42.666C90.2852 42.4434 89.5879 42.0801 88.9434 41.5762C88.3105 41.0605 87.7773 40.3984 87.3438 39.5898C86.9219 38.7695 86.7109 37.7676 86.7109 36.584V30.3965C86.7109 29.9629 86.7578 29.5059 86.8516 29.0254C86.957 28.5449 87.1152 28.0703 87.3262 27.6016C87.5371 27.1211 87.8066 26.6641 88.1348 26.2305C88.4746 25.7969 88.8789 25.416 89.3477 25.0879C89.8281 24.7598 90.3789 24.4961 91 24.2969C91.6211 24.0977 92.3242 23.998 93.1094 23.998H105.502V28.5684H93.1094C92.5117 28.5684 92.0547 28.7207 91.7383 29.0254C91.4336 29.3301 91.2812 29.7988 91.2812 30.4316V36.584C91.2812 37.1816 91.4395 37.6387 91.7559 37.9551C92.0723 38.2715 92.5352 38.4297 93.1445 38.4297H105.502V43ZM127.545 43H115.152C114.52 43 113.828 42.8887 113.078 42.666C112.328 42.4434 111.631 42.0801 110.986 41.5762C110.354 41.0605 109.82 40.3984 109.387 39.5898C108.965 38.7695 108.754 37.7676 108.754 36.584V30.3965C108.754 29.9629 108.801 29.5059 108.895 29.0254C109 28.5449 109.158 28.0703 109.369 27.6016C109.58 27.1211 109.85 26.6641 110.178 26.2305C110.518 25.7969 110.922 25.416 111.391 25.0879C111.871 24.7598 112.422 24.4961 113.043 24.2969C113.664 24.0977 114.367 23.998 115.152 23.998H127.545V28.5684H115.152C114.555 28.5684 114.098 28.7207 113.781 29.0254C113.477 29.3301 113.324 29.7988 113.324 30.4316V36.584C113.324 37.1816 113.482 37.6387 113.799 37.9551C114.115 38.2715 114.578 38.4297 115.188 38.4297H127.545V43ZM151.627 30.291C151.627 30.9238 151.516 31.6094 151.293 32.3477C151.07 33.0742 150.707 33.7539 150.203 34.3867C149.711 35.0078 149.061 35.5293 148.252 35.9512C147.455 36.373 146.482 36.584 145.334 36.584H137.09V32.2422H145.334C145.955 32.2422 146.436 32.0547 146.775 31.6797C147.115 31.293 147.285 30.8184 147.285 30.2559C147.285 29.6582 147.092 29.1895 146.705 28.8496C146.33 28.5098 145.873 28.3398 145.334 28.3398H137.09C136.469 28.3398 135.988 28.5332 135.648 28.9199C135.309 29.2949 135.139 29.7637 135.139 30.3262V36.707C135.139 37.3164 135.326 37.791 135.701 38.1309C136.088 38.4707 136.562 38.6406 137.125 38.6406H145.334V43H137.09C136.457 43 135.771 42.8887 135.033 42.666C134.307 42.4434 133.627 42.0859 132.994 41.5938C132.373 41.0898 131.852 40.4395 131.43 39.6426C131.008 38.834 130.797 37.8555 130.797 36.707V30.291C130.797 29.6582 130.908 28.9785 131.131 28.252C131.354 27.5137 131.711 26.834 132.203 26.2129C132.707 25.5801 133.357 25.0527 134.154 24.6309C134.963 24.209 135.941 23.998 137.09 23.998H145.334C145.967 23.998 146.646 24.1094 147.373 24.332C148.111 24.5547 148.791 24.918 149.412 25.4219C150.045 25.9141 150.572 26.5645 150.994 27.373C151.416 28.1699 151.627 29.1426 151.627 30.291ZM173.072 36.584C173.072 37.3691 172.973 38.0781 172.773 38.7109C172.574 39.332 172.311 39.8828 171.982 40.3633C171.654 40.832 171.273 41.2363 170.84 41.5762C170.406 41.9043 169.949 42.1738 169.469 42.3848C169 42.5957 168.52 42.7539 168.027 42.8594C167.547 42.9531 167.09 43 166.656 43H154.281V38.4297H166.621C167.242 38.4297 167.711 38.2715 168.027 37.9551C168.344 37.6387 168.502 37.1816 168.502 36.584C168.443 35.3652 167.828 34.7559 166.656 34.7559H159.572C158.564 34.7559 157.709 34.5801 157.006 34.2285C156.303 33.877 155.729 33.4375 155.283 32.9102C154.85 32.3828 154.533 31.8145 154.334 31.2051C154.146 30.5957 154.053 30.0273 154.053 29.5C154.053 28.4805 154.234 27.625 154.598 26.9336C154.961 26.2305 155.418 25.6621 155.969 25.2285C156.52 24.7949 157.117 24.4844 157.762 24.2969C158.406 24.0977 159.01 23.998 159.572 23.998H170.805V28.5684H159.607C159.373 28.5684 159.186 28.5977 159.045 28.6562C158.916 28.7031 158.816 28.7734 158.746 28.8672C158.688 28.9492 158.652 29.043 158.641 29.1484C158.629 29.2422 158.623 29.3359 158.623 29.4297C158.635 29.6172 158.67 29.7637 158.729 29.8691C158.787 29.9746 158.857 30.0508 158.939 30.0977C159.033 30.1445 159.133 30.1738 159.238 30.1855C159.355 30.1855 159.467 30.1855 159.572 30.1855H166.656C167.828 30.1855 168.824 30.3965 169.645 30.8184C170.465 31.2402 171.127 31.7734 171.631 32.418C172.135 33.0508 172.498 33.7422 172.721 34.4922C172.955 35.2422 173.072 35.9395 173.072 36.584ZM194.658 36.584C194.658 37.3691 194.559 38.0781 194.359 38.7109C194.16 39.332 193.896 39.8828 193.568 40.3633C193.24 40.832 192.859 41.2363 192.426 41.5762C191.992 41.9043 191.535 42.1738 191.055 42.3848C190.586 42.5957 190.105 42.7539 189.613 42.8594C189.133 42.9531 188.676 43 188.242 43H175.867V38.4297H188.207C188.828 38.4297 189.297 38.2715 189.613 37.9551C189.93 37.6387 190.088 37.1816 190.088 36.584C190.029 35.3652 189.414 34.7559 188.242 34.7559H181.158C180.15 34.7559 179.295 34.5801 178.592 34.2285C177.889 33.877 177.314 33.4375 176.869 32.9102C176.436 32.3828 176.119 31.8145 175.92 31.2051C175.732 30.5957 175.639 30.0273 175.639 29.5C175.639 28.4805 175.82 27.625 176.184 26.9336C176.547 26.2305 177.004 25.6621 177.555 25.2285C178.105 24.7949 178.703 24.4844 179.348 24.2969C179.992 24.0977 180.596 23.998 181.158 23.998H192.391V28.5684H181.193C180.959 28.5684 180.771 28.5977 180.631 28.6562C180.502 28.7031 180.402 28.7734 180.332 28.8672C180.273 28.9492 180.238 29.043 180.227 29.1484C180.215 29.2422 180.209 29.3359 180.209 29.4297C180.221 29.6172 180.256 29.7637 180.314 29.8691C180.373 29.9746 180.443 30.0508 180.525 30.0977C180.619 30.1445 180.719 30.1738 180.824 30.1855C180.941 30.1855 181.053 30.1855 181.158 30.1855H188.242C189.414 30.1855 190.41 30.3965 191.23 30.8184C192.051 31.2402 192.713 31.7734 193.217 32.418C193.721 33.0508 194.084 33.7422 194.307 34.4922C194.541 35.2422 194.658 35.9395 194.658 36.584Z" fill="white"/>
</svg>
