<svg width="357" height="140" viewBox="0 0 357 140" fill="none" xmlns="http://www.w3.org/2000/svg">
<path d="M24.5 56C24.5 46.335 32.335 38.5 42 38.5H327C336.665 38.5 344.5 46.335 344.5 56V80C344.5 89.665 336.665 97.5 327 97.5H42C32.335 97.5 24.5 89.665 24.5 80V56Z" fill="#010729" stroke="white" stroke-width="5"/>
<path d="M77.7539 78H73.1836V71.8125H57.1172V78H52.5469V65.3965C52.5469 63.5566 52.8633 61.8633 53.4961 60.3164C54.1289 58.7695 55.0078 57.4395 56.1328 56.3262C57.2578 55.2129 58.5879 54.3457 60.123 53.7246C61.6582 53.1035 63.334 52.793 65.1504 52.793H75.4512C75.7676 52.793 76.0664 52.8516 76.3477 52.9688C76.6289 53.0859 76.875 53.25 77.0859 53.4609C77.2969 53.6719 77.4609 53.918 77.5781 54.1992C77.6953 54.4805 77.7539 54.7793 77.7539 55.0957V78ZM57.1172 67.2422H73.1836V57.3633H65.1504C65.0098 57.3633 64.7109 57.3867 64.2539 57.4336C63.8086 57.4688 63.2871 57.5684 62.6895 57.7324C62.1035 57.8965 61.4824 58.1484 60.8262 58.4883C60.1699 58.8281 59.5664 59.2969 59.0156 59.8945C58.4648 60.4922 58.0078 61.2422 57.6445 62.1445C57.293 63.0352 57.1172 64.1191 57.1172 65.3965V67.2422ZM100.869 78H88.4766C87.8438 78 87.1523 77.8887 86.4023 77.666C85.6523 77.4434 84.9551 77.0801 84.3105 76.5762C83.6777 76.0605 83.1445 75.3984 82.7109 74.5898C82.2891 73.7695 82.0781 72.7676 82.0781 71.584V65.3965C82.0781 64.9629 82.125 64.5059 82.2188 64.0254C82.3242 63.5449 82.4824 63.0703 82.6934 62.6016C82.9043 62.1211 83.1738 61.6641 83.502 61.2305C83.8418 60.7969 84.2461 60.416 84.7148 60.0879C85.1953 59.7598 85.7461 59.4961 86.3672 59.2969C86.9883 59.0977 87.6914 58.998 88.4766 58.998H100.869V63.5684H88.4766C87.8789 63.5684 87.4219 63.7207 87.1055 64.0254C86.8008 64.3301 86.6484 64.7988 86.6484 65.4316V71.584C86.6484 72.1816 86.8066 72.6387 87.123 72.9551C87.4395 73.2715 87.9023 73.4297 88.5117 73.4297H100.869V78ZM122.912 78H110.52C109.887 78 109.195 77.8887 108.445 77.666C107.695 77.4434 106.998 77.0801 106.354 76.5762C105.721 76.0605 105.188 75.3984 104.754 74.5898C104.332 73.7695 104.121 72.7676 104.121 71.584V65.3965C104.121 64.9629 104.168 64.5059 104.262 64.0254C104.367 63.5449 104.525 63.0703 104.736 62.6016C104.947 62.1211 105.217 61.6641 105.545 61.2305C105.885 60.7969 106.289 60.416 106.758 60.0879C107.238 59.7598 107.789 59.4961 108.41 59.2969C109.031 59.0977 109.734 58.998 110.52 58.998H122.912V63.5684H110.52C109.922 63.5684 109.465 63.7207 109.148 64.0254C108.844 64.3301 108.691 64.7988 108.691 65.4316V71.584C108.691 72.1816 108.85 72.6387 109.166 72.9551C109.482 73.2715 109.945 73.4297 110.555 73.4297H122.912V78ZM146.994 65.291C146.994 65.9238 146.883 66.6094 146.66 67.3477C146.438 68.0742 146.074 68.7539 145.57 69.3867C145.078 70.0078 144.428 70.5293 143.619 70.9512C142.822 71.373 141.85 71.584 140.701 71.584H132.457V67.2422H140.701C141.322 67.2422 141.803 67.0547 142.143 66.6797C142.482 66.293 142.652 65.8184 142.652 65.2559C142.652 64.6582 142.459 64.1895 142.072 63.8496C141.697 63.5098 141.24 63.3398 140.701 63.3398H132.457C131.836 63.3398 131.355 63.5332 131.016 63.9199C130.676 64.2949 130.506 64.7637 130.506 65.3262V71.707C130.506 72.3164 130.693 72.791 131.068 73.1309C131.455 73.4707 131.93 73.6406 132.492 73.6406H140.701V78H132.457C131.824 78 131.139 77.8887 130.4 77.666C129.674 77.4434 128.994 77.0859 128.361 76.5938C127.74 76.0898 127.219 75.4395 126.797 74.6426C126.375 73.834 126.164 72.8555 126.164 71.707V65.291C126.164 64.6582 126.275 63.9785 126.498 63.252C126.721 62.5137 127.078 61.834 127.57 61.2129C128.074 60.5801 128.725 60.0527 129.521 59.6309C130.33 59.209 131.309 58.998 132.457 58.998H140.701C141.334 58.998 142.014 59.1094 142.74 59.332C143.479 59.5547 144.158 59.918 144.779 60.4219C145.412 60.9141 145.939 61.5645 146.361 62.373C146.783 63.1699 146.994 64.1426 146.994 65.291ZM168.439 71.584C168.439 72.3691 168.34 73.0781 168.141 73.7109C167.941 74.332 167.678 74.8828 167.35 75.3633C167.021 75.832 166.641 76.2363 166.207 76.5762C165.773 76.9043 165.316 77.1738 164.836 77.3848C164.367 77.5957 163.887 77.7539 163.395 77.8594C162.914 77.9531 162.457 78 162.023 78H149.648V73.4297H161.988C162.609 73.4297 163.078 73.2715 163.395 72.9551C163.711 72.6387 163.869 72.1816 163.869 71.584C163.811 70.3652 163.195 69.7559 162.023 69.7559H154.939C153.932 69.7559 153.076 69.5801 152.373 69.2285C151.67 68.877 151.096 68.4375 150.65 67.9102C150.217 67.3828 149.9 66.8145 149.701 66.2051C149.514 65.5957 149.42 65.0273 149.42 64.5C149.42 63.4805 149.602 62.625 149.965 61.9336C150.328 61.2305 150.785 60.6621 151.336 60.2285C151.887 59.7949 152.484 59.4844 153.129 59.2969C153.773 59.0977 154.377 58.998 154.939 58.998H166.172V63.5684H154.975C154.74 63.5684 154.553 63.5977 154.412 63.6562C154.283 63.7031 154.184 63.7734 154.113 63.8672C154.055 63.9492 154.02 64.043 154.008 64.1484C153.996 64.2422 153.99 64.3359 153.99 64.4297C154.002 64.6172 154.037 64.7637 154.096 64.8691C154.154 64.9746 154.225 65.0508 154.307 65.0977C154.4 65.1445 154.5 65.1738 154.605 65.1855C154.723 65.1855 154.834 65.1855 154.939 65.1855H162.023C163.195 65.1855 164.191 65.3965 165.012 65.8184C165.832 66.2402 166.494 66.7734 166.998 67.418C167.502 68.0508 167.865 68.7422 168.088 69.4922C168.322 70.2422 168.439 70.9395 168.439 71.584ZM190.025 71.584C190.025 72.3691 189.926 73.0781 189.727 73.7109C189.527 74.332 189.264 74.8828 188.936 75.3633C188.607 75.832 188.227 76.2363 187.793 76.5762C187.359 76.9043 186.902 77.1738 186.422 77.3848C185.953 77.5957 185.473 77.7539 184.98 77.8594C184.5 77.9531 184.043 78 183.609 78H171.234V73.4297H183.574C184.195 73.4297 184.664 73.2715 184.98 72.9551C185.297 72.6387 185.455 72.1816 185.455 71.584C185.396 70.3652 184.781 69.7559 183.609 69.7559H176.525C175.518 69.7559 174.662 69.5801 173.959 69.2285C173.256 68.877 172.682 68.4375 172.236 67.9102C171.803 67.3828 171.486 66.8145 171.287 66.2051C171.1 65.5957 171.006 65.0273 171.006 64.5C171.006 63.4805 171.188 62.625 171.551 61.9336C171.914 61.2305 172.371 60.6621 172.922 60.2285C173.473 59.7949 174.07 59.4844 174.715 59.2969C175.359 59.0977 175.963 58.998 176.525 58.998H187.758V63.5684H176.561C176.326 63.5684 176.139 63.5977 175.998 63.6562C175.869 63.7031 175.77 63.7734 175.699 63.8672C175.641 63.9492 175.605 64.043 175.594 64.1484C175.582 64.2422 175.576 64.3359 175.576 64.4297C175.588 64.6172 175.623 64.7637 175.682 64.8691C175.74 64.9746 175.811 65.0508 175.893 65.0977C175.986 65.1445 176.086 65.1738 176.191 65.1855C176.309 65.1855 176.42 65.1855 176.525 65.1855H183.609C184.781 65.1855 185.777 65.3965 186.598 65.8184C187.418 66.2402 188.08 66.7734 188.584 67.418C189.088 68.0508 189.451 68.7422 189.674 69.4922C189.908 70.2422 190.025 70.9395 190.025 71.584ZM225.621 71.584H223.564L223.529 71.6367C223.529 72.3867 223.43 73.0605 223.23 73.6582C223.043 74.2559 222.791 74.7832 222.475 75.2402C222.158 75.6855 221.789 76.0723 221.367 76.4004C220.945 76.7285 220.506 76.998 220.049 77.209C219.604 77.4082 219.146 77.5547 218.678 77.6484C218.221 77.7422 217.787 77.7891 217.377 77.7891H211.172C210.082 77.7891 209.15 77.584 208.377 77.1738C207.615 76.7637 206.982 76.2539 206.479 75.6445C205.986 75.0352 205.617 74.373 205.371 73.6582C205.137 72.9434 205.008 72.2812 204.984 71.6719V69.5449C204.984 68.6191 205.113 67.8223 205.371 67.1543C205.641 66.4746 205.992 65.8887 206.426 65.3965C205.922 64.7637 205.553 64.0781 205.318 63.3398C205.096 62.6016 204.984 61.9102 204.984 61.2656C204.984 60.1289 205.189 59.168 205.6 58.3828C206.01 57.5977 206.525 56.9648 207.146 56.4844C207.768 55.9922 208.436 55.6406 209.15 55.4297C209.877 55.207 210.551 55.0957 211.172 55.0957H221.473V59.209H211.172C210.855 59.209 210.568 59.2617 210.311 59.3672C210.064 59.4609 209.848 59.6016 209.66 59.7891C209.484 59.9766 209.35 60.1992 209.256 60.457C209.162 60.7031 209.121 60.9727 209.133 61.2656C209.133 61.9336 209.32 62.4492 209.695 62.8125C210.07 63.1641 210.562 63.3398 211.172 63.3398H217.377V67.4531H211.172C210.527 67.4531 210.023 67.6523 209.66 68.0508C209.309 68.4492 209.133 68.9473 209.133 69.5449V71.5137C209.133 72.1465 209.32 72.6621 209.695 73.0605C210.082 73.4473 210.574 73.6406 211.172 73.6406H217.342C217.986 73.6406 218.49 73.4473 218.854 73.0605C219.229 72.6738 219.416 72.1816 219.416 71.584C219.416 71.0801 219.504 70.582 219.68 70.0898C219.855 69.5977 220.119 69.1582 220.471 68.7715C220.822 68.373 221.25 68.0566 221.754 67.8223C222.27 67.5762 222.861 67.4531 223.529 67.4531H225.621V71.584ZM270.691 78H266.086V62.9883L257.982 77.2441C257.783 77.6074 257.502 77.8828 257.139 78.0703C256.787 78.2578 256.406 78.3516 255.996 78.3516C255.598 78.3516 255.223 78.2578 254.871 78.0703C254.531 77.8828 254.262 77.6074 254.062 77.2441L245.924 62.9883V78H241.354V54.7441C241.354 54.2168 241.506 53.748 241.811 53.3379C242.127 52.9277 242.537 52.6523 243.041 52.5117C243.287 52.4531 243.533 52.4355 243.779 52.459C244.025 52.4707 244.26 52.5234 244.482 52.6172C244.717 52.6992 244.928 52.8223 245.115 52.9863C245.303 53.1387 245.461 53.3262 245.59 53.5488L255.996 71.6367L266.402 53.5488C266.672 53.1035 267.041 52.7871 267.51 52.5996C267.99 52.4121 268.488 52.3828 269.004 52.5117C269.496 52.6523 269.9 52.9277 270.217 53.3379C270.533 53.748 270.691 54.2168 270.691 54.7441V78ZM295.02 71.707C295.02 72.3398 294.908 73.0254 294.686 73.7637C294.463 74.4902 294.1 75.1699 293.596 75.8027C293.104 76.4238 292.453 76.9453 291.645 77.3672C290.848 77.7891 289.875 78 288.727 78H280.482C279.85 78 279.164 77.8887 278.426 77.666C277.699 77.4434 277.02 77.0859 276.387 76.5938C275.766 76.0898 275.244 75.4395 274.822 74.6426C274.4 73.834 274.189 72.8555 274.189 71.707C274.189 71.0742 274.301 70.3887 274.523 69.6504C274.746 68.9121 275.104 68.2324 275.596 67.6113C276.1 66.9785 276.75 66.4512 277.547 66.0293C278.355 65.6074 279.334 65.3965 280.482 65.3965H288.727V69.7559H280.482C279.861 69.7559 279.381 69.9492 279.041 70.3359C278.701 70.7109 278.531 71.1797 278.531 71.7422C278.531 72.3398 278.725 72.8086 279.111 73.1484C279.51 73.4766 279.979 73.6406 280.518 73.6406H288.727C289.348 73.6406 289.828 73.4531 290.168 73.0781C290.508 72.7031 290.678 72.2344 290.678 71.6719V65.291C290.678 64.6934 290.49 64.2188 290.115 63.8672C289.752 63.5156 289.289 63.3398 288.727 63.3398H278.689V58.998H288.727C289.359 58.998 290.039 59.1094 290.766 59.332C291.504 59.5547 292.184 59.918 292.805 60.4219C293.438 60.9141 293.965 61.5645 294.387 62.373C294.809 63.1699 295.02 64.1426 295.02 65.291V71.707ZM319.875 71.584C319.875 72.3691 319.775 73.0781 319.576 73.7109C319.377 74.332 319.113 74.8828 318.785 75.3633C318.457 75.832 318.076 76.2363 317.643 76.5762C317.209 76.9043 316.752 77.1738 316.271 77.3848C315.803 77.5957 315.328 77.7539 314.848 77.8594C314.367 77.9531 313.91 78 313.477 78H305.232V73.4297H313.477C314.086 73.4297 314.543 73.2715 314.848 72.9551C315.152 72.6387 315.305 72.1816 315.305 71.584V65.4316C315.305 64.7988 315.146 64.3301 314.83 64.0254C314.525 63.7207 314.074 63.5684 313.477 63.5684H305.268C304.646 63.5684 304.178 63.7266 303.861 64.043C303.545 64.3477 303.387 64.7988 303.387 65.3965V83.9414H298.816V65.3965C298.816 64.6113 298.916 63.9082 299.115 63.2871C299.314 62.666 299.578 62.1211 299.906 61.6523C300.246 61.1719 300.633 60.7676 301.066 60.4395C301.5 60.0996 301.951 59.8242 302.42 59.6133C302.9 59.4023 303.381 59.25 303.861 59.1562C304.354 59.0508 304.811 58.998 305.232 58.998H313.477C314.262 58.998 314.965 59.0977 315.586 59.2969C316.207 59.4961 316.752 59.7598 317.221 60.0879C317.701 60.416 318.105 60.7969 318.434 61.2305C318.773 61.6641 319.049 62.1211 319.26 62.6016C319.471 63.0703 319.623 63.5449 319.717 64.0254C319.822 64.5059 319.875 64.9629 319.875 65.3965V71.584Z" fill="white"/>
<path d="M355.236 67.9601C355.691 105.328 276.804 136.587 179.036 137.779C81.2676 138.971 1.64165 109.644 1.18612 72.276C0.730602 34.9078 79.618 3.64872 177.386 2.45692C275.154 1.26511 354.78 30.5919 355.236 67.9601Z" fill="white" fill-opacity="0.28"/>
</svg>
