<svg width="430" height="927" viewBox="0 0 430 927" fill="none" xmlns="http://www.w3.org/2000/svg">
<rect x="-7" y="250.075" width="100" height="12.1526" rx="6.07632" fill="#2D3A5D"/>
<rect x="109" y="250.639" width="100" height="12.1526" rx="6.07632" fill="#2D3A5D"/>
<rect x="341" y="250.639" width="100" height="12.1526" rx="6.07632" fill="#2D3A5D"/>
<rect x="225" y="250.639" width="100" height="12.1526" rx="6.07632" fill="#4C1858"/>
<rect x="23" y="291.562" width="100" height="12.1526" rx="6.07632" fill="#2D3A5D"/>
<rect x="140" y="291.562" width="100" height="12.1526" rx="6.07632" fill="#4C1858"/>
<rect x="257" y="291.562" width="100" height="12.1526" rx="6.07632" fill="#2D3A5D"/>
<rect x="66" y="270.959" width="100" height="12.1526" rx="6.07632" fill="#2D3A5D"/>
<rect x="300" y="270.959" width="100" height="12.1526" rx="6.07632" fill="#2D3A5D"/>
<rect x="183" y="270.959" width="100" height="12.1526" rx="6.07632" fill="#4C1858"/>
<rect x="374" y="291.562" width="100" height="12.1526" rx="6.07632" fill="#2D3A5D"/>
<rect x="36" y="230.32" width="100" height="12.1526" rx="6.07632" fill="#2D3A5D"/>
<rect x="153" y="230.32" width="100" height="12.1526" rx="6.07632" fill="#2D3A5D"/>
<rect x="270" y="230.32" width="100" height="12.1526" rx="6.07632" fill="#4C1858"/>
<rect x="79" y="210" width="100" height="12.1526" rx="6.07632" fill="#2D3A5D"/>
<rect x="313" y="210" width="100" height="12.1526" rx="6.07632" fill="#4C1858"/>
<rect x="196" y="210" width="100" height="12.1526" rx="6.07632" fill="#2D3A5D"/>
<rect x="387" y="230.32" width="100" height="12.1526" rx="6.07632" fill="#2D3A5D"/>
<rect x="-38" y="210" width="100" height="12.1526" rx="6.07632" fill="#4C1858"/>
<rect x="-51" y="270.959" width="100" height="12.1526" rx="6.07632" fill="#2D3A5D"/>
<rect x="-10" y="561.075" width="100" height="12.1526" rx="6.07632" fill="#2D3A5D"/>
<rect x="106" y="561.639" width="100" height="12.1526" rx="6.07632" fill="#2D3A5D"/>
<rect x="338" y="561.639" width="100" height="12.1526" rx="6.07632" fill="#2D3A5D"/>
<rect x="222" y="561.639" width="100" height="12.1526" rx="6.07632" fill="#4C1858"/>
<rect x="20" y="602.562" width="100" height="12.1526" rx="6.07632" fill="#2D3A5D"/>
<rect x="137" y="602.562" width="100" height="12.1526" rx="6.07632" fill="#4C1858"/>
<rect x="254" y="602.562" width="100" height="12.1526" rx="6.07632" fill="#2D3A5D"/>
<rect x="63" y="581.959" width="100" height="12.1526" rx="6.07632" fill="#2D3A5D"/>
<rect x="297" y="581.959" width="100" height="12.1526" rx="6.07632" fill="#2D3A5D"/>
<rect x="180" y="581.959" width="100" height="12.1526" rx="6.07632" fill="#4C1858"/>
<rect x="371" y="602.562" width="100" height="12.1526" rx="6.07632" fill="#2D3A5D"/>
<rect x="33" y="541.32" width="100" height="12.1526" rx="6.07632" fill="#2D3A5D"/>
<rect x="150" y="541.32" width="100" height="12.1526" rx="6.07632" fill="#2D3A5D"/>
<rect x="267" y="541.32" width="100" height="12.1526" rx="6.07632" fill="#4C1858"/>
<rect x="76" y="521" width="100" height="12.1526" rx="6.07632" fill="#2D3A5D"/>
<rect x="310" y="521" width="100" height="12.1526" rx="6.07632" fill="#4C1858"/>
<rect x="193" y="521" width="100" height="12.1526" rx="6.07632" fill="#2D3A5D"/>
<rect x="384" y="541.32" width="100" height="12.1526" rx="6.07632" fill="#2D3A5D"/>
<rect x="-41" y="521" width="100" height="12.1526" rx="6.07632" fill="#4C1858"/>
<rect x="-54" y="581.959" width="100" height="12.1526" rx="6.07632" fill="#2D3A5D"/>
<rect x="-6" y="354.075" width="100" height="12.1526" rx="6.07632" fill="#4C1858"/>
<rect x="110" y="354.639" width="100" height="12.1526" rx="6.07632" fill="#2D3A5D"/>
<rect x="342" y="354.639" width="100" height="12.1526" rx="6.07632" fill="#4C1858"/>
<rect x="226" y="354.639" width="100" height="12.1526" rx="6.07632" fill="#2D3A5D"/>
<rect x="24" y="395.562" width="100" height="12.1526" rx="6.07632" fill="#2D3A5D"/>
<rect x="141" y="395.562" width="100" height="12.1526" rx="6.07632" fill="#2D3A5D"/>
<rect x="258" y="395.562" width="100" height="12.1526" rx="6.07632" fill="#4C1858"/>
<rect x="67" y="374.959" width="100" height="12.1526" rx="6.07632" fill="#2D3A5D"/>
<rect x="301" y="374.959" width="100" height="12.1526" rx="6.07632" fill="#4C1858"/>
<rect x="184" y="374.959" width="100" height="12.1526" rx="6.07632" fill="#2D3A5D"/>
<rect x="375" y="395.562" width="100" height="12.1526" rx="6.07632" fill="#2D3A5D"/>
<rect x="37" y="334.32" width="100" height="12.1526" rx="6.07632" fill="#4C1858"/>
<rect x="154" y="334.32" width="100" height="12.1526" rx="6.07632" fill="#2D3A5D"/>
<rect x="271" y="334.32" width="100" height="12.1526" rx="6.07632" fill="#2D3A5D"/>
<rect x="80" y="314" width="100" height="12.1526" rx="6.07632" fill="#4C1858"/>
<rect x="314" y="314" width="100" height="12.1526" rx="6.07632" fill="#2D3A5D"/>
<rect x="197" y="314" width="100" height="12.1526" rx="6.07632" fill="#2D3A5D"/>
<rect x="388" y="334.32" width="100" height="12.1526" rx="6.07632" fill="#4C1858"/>
<rect x="-37" y="314" width="100" height="12.1526" rx="6.07632" fill="#2D3A5D"/>
<rect x="-50" y="374.959" width="100" height="12.1526" rx="6.07632" fill="#4C1858"/>
<rect y="458.075" width="100" height="12.1526" rx="6.07632" fill="#2D3A5D"/>
<rect x="116" y="458.639" width="100" height="12.1526" rx="6.07632" fill="#4C1858"/>
<rect x="348" y="458.639" width="100" height="12.1526" rx="6.07632" fill="#2D3A5D"/>
<rect x="232" y="458.639" width="100" height="12.1526" rx="6.07632" fill="#2D3A5D"/>
<rect x="30" y="499.562" width="100" height="12.1526" rx="6.07632" fill="#4C1858"/>
<rect x="147" y="499.562" width="100" height="12.1526" rx="6.07632" fill="#2D3A5D"/>
<rect x="264" y="499.562" width="100" height="12.1526" rx="6.07632" fill="#2D3A5D"/>
<rect x="73" y="478.959" width="100" height="12.1526" rx="6.07632" fill="#4C1858"/>
<rect x="307" y="478.959" width="100" height="12.1526" rx="6.07632" fill="#2D3A5D"/>
<rect x="190" y="478.959" width="100" height="12.1526" rx="6.07632" fill="#2D3A5D"/>
<rect x="381" y="499.562" width="100" height="12.1526" rx="6.07632" fill="#4C1858"/>
<rect x="43" y="438.32" width="100" height="12.1526" rx="6.07632" fill="#2D3A5D"/>
<rect x="160" y="438.32" width="100" height="12.1526" rx="6.07632" fill="#4C1858"/>
<rect x="277" y="438.32" width="100" height="12.1526" rx="6.07632" fill="#2D3A5D"/>
<rect x="86" y="418" width="100" height="12.1526" rx="6.07632" fill="#2D3A5D"/>
<rect x="320" y="418" width="100" height="12.1526" rx="6.07632" fill="#2D3A5D"/>
<rect x="203" y="418" width="100" height="12.1526" rx="6.07632" fill="#4C1858"/>
<rect x="394" y="438.32" width="100" height="12.1526" rx="6.07632" fill="#2D3A5D"/>
<rect x="-31" y="418" width="100" height="12.1526" rx="6.07632" fill="#2D3A5D"/>
<rect x="-44" y="478.959" width="100" height="12.1526" rx="6.07632" fill="#2D3A5D"/>
<rect x="-18" y="666.075" width="100" height="12.1526" rx="6.07632" fill="#4C1858"/>
<rect x="98" y="666.639" width="100" height="12.1526" rx="6.07632" fill="#2D3A5D"/>
<rect x="330" y="666.639" width="100" height="12.1526" rx="6.07632" fill="#4C1858"/>
<rect x="214" y="666.639" width="100" height="12.1526" rx="6.07632" fill="#2D3A5D"/>
<rect x="12" y="707.562" width="100" height="12.1526" rx="6.07632" fill="#2D3A5D"/>
<rect x="129" y="707.562" width="100" height="12.1526" rx="6.07632" fill="#2D3A5D"/>
<rect x="246" y="707.562" width="100" height="12.1526" rx="6.07632" fill="#4C1858"/>
<rect x="55" y="686.959" width="100" height="12.1526" rx="6.07632" fill="#2D3A5D"/>
<rect x="289" y="686.959" width="100" height="12.1526" rx="6.07632" fill="#4C1858"/>
<rect x="172" y="686.959" width="100" height="12.1526" rx="6.07632" fill="#2D3A5D"/>
<rect x="363" y="707.562" width="100" height="12.1526" rx="6.07632" fill="#2D3A5D"/>
<rect x="25" y="646.32" width="100" height="12.1526" rx="6.07632" fill="#4C1858"/>
<rect x="142" y="646.32" width="100" height="12.1526" rx="6.07632" fill="#2D3A5D"/>
<rect x="259" y="646.32" width="100" height="12.1526" rx="6.07632" fill="#2D3A5D"/>
<rect x="68" y="626" width="100" height="12.1526" rx="6.07632" fill="#4C1858"/>
<rect x="302" y="626" width="100" height="12.1526" rx="6.07632" fill="#2D3A5D"/>
<rect x="185" y="626" width="100" height="12.1526" rx="6.07632" fill="#2D3A5D"/>
<rect x="376" y="646.32" width="100" height="12.1526" rx="6.07632" fill="#4C1858"/>
<rect x="-49" y="626" width="100" height="12.1526" rx="6.07632" fill="#2D3A5D"/>
<rect x="-62" y="686.959" width="100" height="12.1526" rx="6.07632" fill="#4C1858"/>
<rect x="-25" y="40.0747" width="100" height="12.1526" rx="6.07632" fill="#4C1858"/>
<rect x="91" y="40.6392" width="100" height="12.1526" rx="6.07632" fill="#2D3A5D"/>
<rect x="323" y="40.6392" width="100" height="12.1526" rx="6.07632" fill="#4C1858"/>
<rect x="207" y="40.6392" width="100" height="12.1526" rx="6.07632" fill="#2D3A5D"/>
<rect x="5" y="81.5625" width="100" height="12.1526" rx="6.07632" fill="#2D3A5D"/>
<rect x="122" y="81.5625" width="100" height="12.1526" rx="6.07632" fill="#2D3A5D"/>
<rect x="239" y="81.5625" width="100" height="12.1526" rx="6.07632" fill="#4C1858"/>
<rect x="48" y="60.959" width="100" height="12.1526" rx="6.07632" fill="#2D3A5D"/>
<rect x="282" y="60.959" width="100" height="12.1526" rx="6.07632" fill="#4C1858"/>
<rect x="165" y="60.959" width="100" height="12.1526" rx="6.07632" fill="#2D3A5D"/>
<rect x="356" y="81.5625" width="100" height="12.1526" rx="6.07632" fill="#2D3A5D"/>
<rect x="18" y="20.3198" width="100" height="12.1526" rx="6.07632" fill="#4C1858"/>
<rect x="135" y="20.3198" width="100" height="12.1526" rx="6.07632" fill="#2D3A5D"/>
<rect x="252" y="20.3198" width="100" height="12.1526" rx="6.07632" fill="#2D3A5D"/>
<rect x="61" width="100" height="12.1526" rx="6.07632" fill="#4C1858"/>
<rect x="295" width="100" height="12.1526" rx="6.07632" fill="#2D3A5D"/>
<rect x="178" width="100" height="12.1526" rx="6.07632" fill="#2D3A5D"/>
<rect x="369" y="20.3198" width="100" height="12.1526" rx="6.07632" fill="#4C1858"/>
<rect x="-56" width="100" height="12.1526" rx="6.07632" fill="#2D3A5D"/>
<rect x="-69" y="60.959" width="100" height="12.1526" rx="6.07632" fill="#4C1858"/>
<rect x="4" y="873.075" width="100" height="12.1526" rx="6.07632" fill="#2D3A5D"/>
<rect x="120" y="873.639" width="100" height="12.1526" rx="6.07632" fill="#2D3A5D"/>
<rect x="352" y="873.639" width="100" height="12.1526" rx="6.07632" fill="#2D3A5D"/>
<rect x="236" y="873.639" width="100" height="12.1526" rx="6.07632" fill="#4C1858"/>
<rect x="34" y="914.562" width="100" height="12.1526" rx="6.07632" fill="#2D3A5D"/>
<rect x="151" y="914.562" width="100" height="12.1526" rx="6.07632" fill="#4C1858"/>
<rect x="268" y="914.562" width="100" height="12.1526" rx="6.07632" fill="#2D3A5D"/>
<rect x="77" y="893.959" width="100" height="12.1526" rx="6.07632" fill="#2D3A5D"/>
<rect x="311" y="893.959" width="100" height="12.1526" rx="6.07632" fill="#2D3A5D"/>
<rect x="194" y="893.959" width="100" height="12.1526" rx="6.07632" fill="#4C1858"/>
<rect x="385" y="914.562" width="100" height="12.1526" rx="6.07632" fill="#2D3A5D"/>
<rect x="47" y="853.32" width="100" height="12.1526" rx="6.07632" fill="#2D3A5D"/>
<rect x="164" y="853.32" width="100" height="12.1526" rx="6.07632" fill="#2D3A5D"/>
<rect x="281" y="853.32" width="100" height="12.1526" rx="6.07632" fill="#4C1858"/>
<rect x="90" y="833" width="100" height="12.1526" rx="6.07632" fill="#2D3A5D"/>
<rect x="324" y="833" width="100" height="12.1526" rx="6.07632" fill="#4C1858"/>
<rect x="207" y="833" width="100" height="12.1526" rx="6.07632" fill="#2D3A5D"/>
<rect x="398" y="853.32" width="100" height="12.1526" rx="6.07632" fill="#2D3A5D"/>
<rect x="-27" y="833" width="100" height="12.1526" rx="6.07632" fill="#4C1858"/>
<rect x="-40" y="893.959" width="100" height="12.1526" rx="6.07632" fill="#2D3A5D"/>
<rect x="-12" y="770.075" width="100" height="12.1526" rx="6.07632" fill="#2D3A5D"/>
<rect x="104" y="770.639" width="100" height="12.1526" rx="6.07632" fill="#4C1858"/>
<rect x="336" y="770.639" width="100" height="12.1526" rx="6.07632" fill="#2D3A5D"/>
<rect x="220" y="770.639" width="100" height="12.1526" rx="6.07632" fill="#2D3A5D"/>
<rect x="18" y="811.562" width="100" height="12.1526" rx="6.07632" fill="#4C1858"/>
<rect x="135" y="811.562" width="100" height="12.1526" rx="6.07632" fill="#2D3A5D"/>
<rect x="252" y="811.562" width="100" height="12.1526" rx="6.07632" fill="#2D3A5D"/>
<rect x="61" y="790.959" width="100" height="12.1526" rx="6.07632" fill="#4C1858"/>
<rect x="295" y="790.959" width="100" height="12.1526" rx="6.07632" fill="#2D3A5D"/>
<rect x="178" y="790.959" width="100" height="12.1526" rx="6.07632" fill="#2D3A5D"/>
<rect x="369" y="811.562" width="100" height="12.1526" rx="6.07632" fill="#4C1858"/>
<rect x="31" y="750.32" width="100" height="12.1526" rx="6.07632" fill="#2D3A5D"/>
<rect x="148" y="750.32" width="100" height="12.1526" rx="6.07632" fill="#4C1858"/>
<rect x="265" y="750.32" width="100" height="12.1526" rx="6.07632" fill="#2D3A5D"/>
<rect x="74" y="730" width="100" height="12.1526" rx="6.07632" fill="#2D3A5D"/>
<rect x="308" y="730" width="100" height="12.1526" rx="6.07632" fill="#2D3A5D"/>
<rect x="191" y="730" width="100" height="12.1526" rx="6.07632" fill="#4C1858"/>
<rect x="382" y="750.32" width="100" height="12.1526" rx="6.07632" fill="#2D3A5D"/>
<rect x="-43" y="730" width="100" height="12.1526" rx="6.07632" fill="#2D3A5D"/>
<rect x="-56" y="790.959" width="100" height="12.1526" rx="6.07632" fill="#2D3A5D"/>
<rect x="-12" y="770.075" width="100" height="12.1526" rx="6.07632" fill="#2D3A5D"/>
<rect x="104" y="770.639" width="100" height="12.1526" rx="6.07632" fill="#4C1858"/>
<rect x="336" y="770.639" width="100" height="12.1526" rx="6.07632" fill="#2D3A5D"/>
<rect x="220" y="770.639" width="100" height="12.1526" rx="6.07632" fill="#2D3A5D"/>
<rect x="18" y="811.562" width="100" height="12.1526" rx="6.07632" fill="#4C1858"/>
<rect x="135" y="811.562" width="100" height="12.1526" rx="6.07632" fill="#2D3A5D"/>
<rect x="252" y="811.562" width="100" height="12.1526" rx="6.07632" fill="#2D3A5D"/>
<rect x="61" y="790.959" width="100" height="12.1526" rx="6.07632" fill="#4C1858"/>
<rect x="295" y="790.959" width="100" height="12.1526" rx="6.07632" fill="#2D3A5D"/>
<rect x="178" y="790.959" width="100" height="12.1526" rx="6.07632" fill="#2D3A5D"/>
<rect x="369" y="811.562" width="100" height="12.1526" rx="6.07632" fill="#4C1858"/>
<rect x="31" y="750.32" width="100" height="12.1526" rx="6.07632" fill="#2D3A5D"/>
<rect x="148" y="750.32" width="100" height="12.1526" rx="6.07632" fill="#4C1858"/>
<rect x="265" y="750.32" width="100" height="12.1526" rx="6.07632" fill="#2D3A5D"/>
<rect x="74" y="730" width="100" height="12.1526" rx="6.07632" fill="#2D3A5D"/>
<rect x="308" y="730" width="100" height="12.1526" rx="6.07632" fill="#2D3A5D"/>
<rect x="191" y="730" width="100" height="12.1526" rx="6.07632" fill="#4C1858"/>
<rect x="382" y="750.32" width="100" height="12.1526" rx="6.07632" fill="#2D3A5D"/>
<rect x="-43" y="730" width="100" height="12.1526" rx="6.07632" fill="#2D3A5D"/>
<rect x="-56" y="790.959" width="100" height="12.1526" rx="6.07632" fill="#2D3A5D"/>
<rect x="-12" y="145.075" width="100" height="12.1526" rx="6.07632" fill="#2D3A5D"/>
<rect x="104" y="145.639" width="100" height="12.1526" rx="6.07632" fill="#4C1858"/>
<rect x="336" y="145.639" width="100" height="12.1526" rx="6.07632" fill="#2D3A5D"/>
<rect x="220" y="145.639" width="100" height="12.1526" rx="6.07632" fill="#2D3A5D"/>
<rect x="18" y="186.562" width="100" height="12.1526" rx="6.07632" fill="#4C1858"/>
<rect x="135" y="186.562" width="100" height="12.1526" rx="6.07632" fill="#2D3A5D"/>
<rect x="252" y="186.562" width="100" height="12.1526" rx="6.07632" fill="#2D3A5D"/>
<rect x="61" y="165.959" width="100" height="12.1526" rx="6.07632" fill="#4C1858"/>
<rect x="295" y="165.959" width="100" height="12.1526" rx="6.07632" fill="#2D3A5D"/>
<rect x="178" y="165.959" width="100" height="12.1526" rx="6.07632" fill="#2D3A5D"/>
<rect x="369" y="186.562" width="100" height="12.1526" rx="6.07632" fill="#4C1858"/>
<rect x="31" y="125.32" width="100" height="12.1526" rx="6.07632" fill="#2D3A5D"/>
<rect x="148" y="125.32" width="100" height="12.1526" rx="6.07632" fill="#4C1858"/>
<rect x="265" y="125.32" width="100" height="12.1526" rx="6.07632" fill="#2D3A5D"/>
<rect x="74" y="105" width="100" height="12.1526" rx="6.07632" fill="#2D3A5D"/>
<rect x="308" y="105" width="100" height="12.1526" rx="6.07632" fill="#2D3A5D"/>
<rect x="191" y="105" width="100" height="12.1526" rx="6.07632" fill="#4C1858"/>
<rect x="382" y="125.32" width="100" height="12.1526" rx="6.07632" fill="#2D3A5D"/>
<rect x="-43" y="105" width="100" height="12.1526" rx="6.07632" fill="#2D3A5D"/>
<rect x="-56" y="165.959" width="100" height="12.1526" rx="6.07632" fill="#2D3A5D"/>
</svg>
