<svg width="390" height="601" viewBox="0 0 390 601" fill="none" xmlns="http://www.w3.org/2000/svg">
<path d="M-41.8105 435.483C-31.2731 405.301 -13.5944 395.831 11.2255 407.073C36.0455 418.314 53.7242 408.844 64.2616 378.663C74.799 348.481 92.4777 339.011 117.298 350.252C142.118 361.494 159.796 352.024 170.334 321.842C180.871 291.661 198.55 282.19 223.37 293.432C248.19 304.674 265.869 295.203 276.406 265.022C286.943 234.84 304.622 225.37 329.442 236.612C354.262 247.853 371.941 238.383 382.478 208.201C393.015 178.02 410.694 168.55 435.514 179.791C460.334 191.033 478.013 181.563 488.55 151.381" stroke="#00F0FF" stroke-opacity="0.5" stroke-width="4"/>
<path d="M-41.8105 435.483C-31.2731 405.301 -13.5944 395.831 11.2255 407.073C36.0455 418.314 53.7242 408.844 64.2616 378.663C74.799 348.481 92.4777 339.011 117.298 350.252C142.118 361.494 159.796 352.024 170.334 321.842C180.871 291.661 198.55 282.19 223.37 293.432C248.19 304.674 265.869 295.203 276.406 265.022C286.943 234.84 304.622 225.37 329.442 236.612C354.262 247.853 371.941 238.383 382.478 208.201C393.015 178.02 410.694 168.55 435.514 179.791C460.334 191.033 478.013 181.563 488.55 151.381" stroke="#00F0FF" stroke-width="4"/>
<path d="M-38.1582 449.249C-27.6208 419.067 -9.9421 409.597 14.8779 420.838C39.6978 432.08 57.3765 422.61 67.914 392.428C78.4514 362.246 96.1301 352.776 120.95 364.018C145.77 375.259 163.449 365.789 173.986 335.608C184.524 305.426 202.202 295.956 227.022 307.197C251.842 318.439 269.521 308.969 280.058 278.787C290.596 248.605 308.274 239.135 333.094 250.377C357.914 261.618 375.593 252.148 386.13 221.967C396.668 191.785 414.347 182.315 439.166 193.556C463.986 204.798 481.665 195.328 492.203 165.146" stroke="#00F0FF" stroke-opacity="0.5" stroke-width="4"/>
<path d="M-38.1582 449.249C-27.6208 419.067 -9.9421 409.597 14.8779 420.838C39.6978 432.08 57.3765 422.61 67.914 392.428C78.4514 362.246 96.1301 352.776 120.95 364.018C145.77 375.259 163.449 365.789 173.986 335.608C184.524 305.426 202.202 295.956 227.022 307.197C251.842 318.439 269.521 308.969 280.058 278.787C290.596 248.605 308.274 239.135 333.094 250.377C357.914 261.618 375.593 252.148 386.13 221.967C396.668 191.785 414.347 182.315 439.166 193.556C463.986 204.798 481.665 195.328 492.203 165.146" stroke="#D700E9" stroke-width="4"/>
</svg>
