<svg width="390" height="290" viewBox="0 0 390 290" fill="none" xmlns="http://www.w3.org/2000/svg">
<path d="M-2.9482 17.1756C19.7008 2.32131 34.2294 10.3678 40.6376 41.3151C47.0458 72.2625 61.5743 80.309 84.2233 65.4547C106.872 50.6004 121.401 58.6469 127.809 89.5942C134.217 120.542 148.746 128.588 171.395 113.734C194.044 98.8795 208.572 106.926 214.981 137.873C221.389 168.821 235.917 176.867 258.566 162.013C281.215 147.159 295.744 155.205 302.152 186.152C308.56 217.1 323.089 225.146 345.738 210.292C368.387 195.438 382.915 203.484 389.324 234.431C395.732 265.379 410.26 273.425 432.909 258.571" stroke="#00F0FF" stroke-opacity="0.5" stroke-width="4"/>
<path d="M-2.9482 17.1756C19.7008 2.32131 34.2294 10.3678 40.6376 41.3151C47.0458 72.2625 61.5743 80.309 84.2233 65.4547C106.872 50.6004 121.401 58.6469 127.809 89.5942C134.217 120.542 148.746 128.588 171.395 113.734C194.044 98.8795 208.572 106.926 214.981 137.873C221.389 168.821 235.917 176.867 258.566 162.013C281.215 147.159 295.744 155.205 302.152 186.152C308.56 217.1 323.089 225.146 345.738 210.292C368.387 195.438 382.915 203.484 389.324 234.431C395.732 265.379 410.26 273.425 432.909 258.571" stroke="#00F0FF" stroke-width="4"/>
<path d="M-8.91012 31.4285C13.7389 16.5742 28.2674 24.6208 34.6756 55.5681C41.0838 86.5154 55.6124 94.5619 78.2614 79.7076C100.91 64.8533 115.439 72.8998 121.847 103.847C128.255 134.794 142.784 142.841 165.433 127.987C188.082 113.132 202.61 121.179 209.019 152.126C215.427 183.074 229.955 191.12 252.604 176.266C275.253 161.411 289.782 169.458 296.19 200.405C302.598 231.353 317.127 239.399 339.776 224.545C362.425 209.691 376.953 217.737 383.362 248.684C389.77 279.632 404.298 287.678 426.947 272.824" stroke="#00F0FF" stroke-opacity="0.5" stroke-width="4"/>
<path d="M-8.91012 31.4285C13.7389 16.5742 28.2674 24.6208 34.6756 55.5681C41.0838 86.5154 55.6124 94.5619 78.2614 79.7076C100.91 64.8533 115.439 72.8998 121.847 103.847C128.255 134.794 142.784 142.841 165.433 127.987C188.082 113.132 202.61 121.179 209.019 152.126C215.427 183.074 229.955 191.12 252.604 176.266C275.253 161.411 289.782 169.458 296.19 200.405C302.598 231.353 317.127 239.399 339.776 224.545C362.425 209.691 376.953 217.737 383.362 248.684C389.77 279.632 404.298 287.678 426.947 272.824" stroke="#D700E9" stroke-width="4"/>
</svg>
